<?xml version="1.0" standalone="no"?>
<!DOCTYPE svg PUBLIC "-//W3C//DTD SVG 20010904//EN"
 "http://www.w3.org/TR/2001/REC-SVG-20010904/DTD/svg10.dtd">
<svg version="1.0" xmlns="http://www.w3.org/2000/svg"
 width="1024.000000pt" height="1024.000000pt" viewBox="0 0 1024.000000 1024.000000"
 preserveAspectRatio="xMidYMid meet">

<g transform="translate(0.000000,1024.000000) scale(0.100000,-0.100000)"
fill="#000000" stroke="none">
<path d="M3315 7280 c-641 -163 -921 -236 -1022 -266 -81 -24 -103 -41 -103
-78 0 -8 49 -52 110 -98 60 -46 110 -86 110 -90 0 -3 -44 -37 -97 -74 -267
-185 -552 -409 -711 -559 -330 -311 -594 -782 -662 -1179 -67 -391 23 -771
271 -1146 101 -154 305 -363 439 -452 409 -271 848 -350 1316 -238 457 109
880 435 1031 794 67 158 78 220 77 431 0 178 -2 196 -28 280 -85 278 -272 429
-635 511 -137 31 -397 47 -389 24 2 -7 22 -18 44 -25 84 -25 169 -79 250 -161
126 -126 174 -246 159 -395 -25 -253 -253 -569 -500 -696 -176 -90 -361 -143
-499 -143 -33 0 -105 7 -160 15 -370 56 -633 288 -738 651 -30 103 -33 339 -6
449 66 270 203 534 403 775 187 226 543 533 762 656 79 45 98 52 111 42 8 -7
60 -70 114 -140 98 -126 122 -145 147 -115 27 33 157 412 292 847 60 195 112
362 115 371 5 18 -20 50 -39 48 -7 0 -79 -18 -162 -39z"/>
<path d="M4517 7140 c-369 -59 -669 -330 -767 -695 -28 -103 -38 -304 -21
-411 36 -221 161 -443 323 -572 119 -95 297 -176 441 -203 88 -15 271 -12 363
6 167 35 309 110 429 230 44 44 94 100 110 124 35 52 48 40 -153 152 l-144 80
-68 -65 c-111 -104 -238 -156 -385 -156 -146 0 -258 43 -358 139 -118 112
-177 257 -177 431 0 172 50 300 160 410 140 140 322 189 514 140 104 -26 167
-62 251 -142 l71 -67 153 84 c85 47 156 87 159 89 7 8 -97 144 -154 201 -96
95 -254 178 -402 211 -84 18 -269 26 -345 14z"/>
<path d="M5620 6200 l0 -930 205 0 205 0 0 305 0 305 123 0 123 0 85 -147 c48
-82 126 -219 174 -305 l89 -158 223 0 c123 0 223 2 223 5 0 3 -20 40 -44 83
-24 42 -105 189 -180 327 -134 244 -137 250 -117 265 11 8 48 35 81 60 102 75
191 208 226 337 23 87 20 232 -6 318 -70 226 -219 376 -425 429 -115 29 -232
36 -607 36 l-378 0 0 -930z m883 542 c121 -53 172 -223 107 -353 -62 -122
-136 -148 -427 -149 l-153 0 0 260 0 259 143 4 c201 5 282 0 330 -21z"/>
<path d="M7310 6200 l0 -930 195 0 195 0 2 594 3 594 239 -444 240 -444 115 0
116 0 225 435 c124 239 226 431 228 426 2 -5 6 -267 10 -583 l7 -573 192 -3
192 -2 -5 737 c-2 406 -7 825 -10 931 l-6 192 -217 0 -216 0 -261 -511 -262
-510 -127 248 c-70 136 -188 366 -262 511 l-135 262 -229 0 -229 0 0 -930z"/>
<path d="M7518 4945 c-341 -65 -611 -293 -728 -615 -166 -452 35 -955 466
-1169 206 -102 420 -124 649 -66 335 84 596 344 686 680 31 116 32 326 2 445
-91 357 -348 622 -690 711 -104 27 -283 33 -385 14z m230 -365 c257 -33 461
-257 479 -525 22 -330 -238 -616 -560 -615 -241 1 -449 164 -521 409 -97 329
112 675 442 731 65 11 77 11 160 0z"/>
<path d="M5448 4930 c-168 -35 -317 -113 -444 -233 -127 -119 -212 -264 -258
-437 -24 -87 -32 -308 -16 -406 55 -343 314 -648 640 -752 111 -35 181 -46
305 -45 150 0 263 26 390 88 167 81 281 197 365 370 71 146 100 289 100 491
l0 91 -212 6 c-116 4 -320 7 -452 7 l-241 0 -4 -160 -3 -160 256 0 c157 0 256
-4 256 -10 0 -5 -9 -34 -21 -65 -24 -65 -113 -166 -188 -214 -198 -128 -473
-98 -642 69 -108 107 -158 227 -166 396 -10 201 37 336 161 460 137 137 322
185 520 134 106 -27 167 -62 258 -148 76 -73 77 -73 105 -59 30 16 286 167
291 172 6 5 -57 94 -97 138 -81 89 -235 186 -371 232 -168 57 -366 70 -532 35z"/>
</g>
</svg>
